<svg width="24" height="24" viewBox="0 0 24 24" fill="none" xmlns="http://www.w3.org/2000/svg">
<path d="M20.25 4.5V19.5C20.25 19.8978 20.092 20.2794 19.8107 20.5607C19.5294 20.842 19.1478 21 18.75 21H15C14.6022 21 14.2206 20.842 13.9393 20.5607C13.658 20.2794 13.5 19.8978 13.5 19.5V4.5C13.5 4.10218 13.658 3.72064 13.9393 3.43934C14.2206 3.15804 14.6022 3 15 3H18.75C19.1478 3 19.5294 3.15804 19.8107 3.43934C20.092 3.72064 20.25 4.10218 20.25 4.5ZM9 3H5.25C4.85218 3 4.47064 3.15804 4.18934 3.43934C3.90804 3.72064 3.75 4.10218 3.75 4.5V19.5C3.75 19.8978 3.90804 20.2794 4.18934 20.5607C4.47064 20.842 4.85218 21 5.25 21H9C9.39782 21 9.77936 20.842 10.0607 20.5607C10.342 20.2794 10.5 19.8978 10.5 19.5V4.5C10.5 4.10218 10.342 3.72064 10.0607 3.43934C9.77936 3.15804 9.39782 3 9 3Z" fill="#FF0000"/>
</svg>
