<svg width="16" height="16" viewBox="0 0 16 16" fill="none" xmlns="http://www.w3.org/2000/svg">
<path d="M15.6125 5.34318L8.3625 1.34318C8.25151 1.2819 8.12679 1.24976 8 1.24976C7.87321 1.24976 7.7485 1.2819 7.6375 1.34318L0.387503 5.34318C0.270277 5.40804 0.172564 5.50311 0.104523 5.61852C0.0364812 5.73393 0.000595093 5.86546 0.000595093 5.99943C0.000595093 6.1334 0.0364812 6.26493 0.104523 6.38034C0.172564 6.49574 0.270277 6.59082 0.387503 6.65568L1.75 7.40568V10.3907C1.74951 10.698 1.86284 10.9945 2.06813 11.2232C2.91438 12.1688 4.8125 13.7501 8 13.7501C8.84653 13.7546 9.68904 13.6335 10.5 13.3907V15.0001C10.5 15.199 10.579 15.3897 10.7197 15.5304C10.8603 15.671 11.0511 15.7501 11.25 15.7501C11.4489 15.7501 11.6397 15.671 11.7803 15.5304C11.921 15.3897 12 15.199 12 15.0001V12.7576C12.7244 12.3574 13.3772 11.8398 13.9319 11.2257C14.1372 10.997 14.2505 10.7005 14.25 10.3932V7.40818L15.6125 6.65818C15.7297 6.59332 15.8274 6.49824 15.8955 6.38284C15.9635 6.26743 15.9994 6.1359 15.9994 6.00193C15.9994 5.86796 15.9635 5.73643 15.8955 5.62102C15.8274 5.50561 15.7297 5.41054 15.6125 5.34568V5.34318ZM8 2.85693L13.6975 6.00005L11.625 7.1438C11.6211 7.14152 11.6174 7.13902 11.6138 7.1363L8.36375 5.34318C8.19024 5.2535 7.98858 5.23505 7.80167 5.29175C7.61475 5.34846 7.45734 5.47584 7.3629 5.64681C7.26845 5.81779 7.24444 6.01886 7.29595 6.20726C7.34747 6.39567 7.47046 6.55655 7.63875 6.65568L10.0763 7.9988L8 9.1438L2.3025 6.00005L8 2.85693ZM8 12.2501C5.47375 12.2501 3.95938 11.0582 3.25 10.2957V8.23318L7.6375 10.6544C7.7485 10.7157 7.87321 10.7479 8 10.7479C8.12679 10.7479 8.25151 10.7157 8.3625 10.6544L10.5 9.47755V11.8044C9.70139 12.1063 8.85372 12.2574 8 12.2501ZM12.75 10.2957C12.52 10.5422 12.2691 10.7682 12 10.9713V8.64943L12.75 8.23568V10.2957Z" fill="#FF0000"/>
</svg>
