<svg width="123" height="123" viewBox="0 0 123 123" fill="none" xmlns="http://www.w3.org/2000/svg">
<path d="M35.6865 50.8239C34.211 50.8239 32.9757 50.3226 31.9806 49.32C30.9855 48.3175 30.488 47.0751 30.488 45.5929C30.488 44.1107 30.987 42.8698 31.985 41.8702C32.9831 40.8706 34.2198 40.3708 35.6953 40.3708C37.1708 40.3708 38.4061 40.8721 39.4012 41.8746C40.3963 42.8772 40.8939 44.1196 40.8939 45.6018C40.8939 47.084 40.3948 48.3249 39.3968 49.3245C38.3988 50.3241 37.162 50.8239 35.6865 50.8239ZM88.3047 50.8239C86.8292 50.8239 85.5939 50.3226 84.5988 49.32C83.6037 48.3175 83.1061 47.0751 83.1061 45.5929C83.1061 44.1107 83.6052 42.8698 84.6032 41.8702C85.6012 40.8706 86.838 40.3708 88.3135 40.3708C89.789 40.3708 91.0243 40.8721 92.0194 41.8746C93.0145 42.8772 93.512 44.1196 93.512 45.6018C93.512 47.084 93.013 48.3249 92.015 49.3245C91.0169 50.3241 89.7802 50.8239 88.3047 50.8239Z" fill="white"/>
<path d="M13.3574 38.4487C12.4525 42.2325 12 46.1586 12 50.227H20.8235C20.8235 44.636 21.7887 39.5926 23.7191 35.0968C25.6505 30.6 28.124 26.5981 31.1397 23.0911L59.7904 51.8719C61.5079 53.5972 64.3009 53.5972 66.0184 51.8719V51.8719C67.725 50.1575 67.725 47.3862 66.0184 45.6719L38.9625 18.4943C34.5102 14.022 27.2639 13.5314 23.2676 18.4156V18.4156C20.9147 21.2903 18.901 24.4019 17.2265 27.7504C15.552 31.0989 14.2623 34.665 13.3574 38.4487Z" fill="white"/>
<path d="M20.8235 50.227H12V50.5882C12 53.0248 13.9752 55 16.4118 55V55C18.8483 55 20.8235 53.0248 20.8235 50.5882V50.227Z" fill="white"/>
<path d="M103.176 50.227C103.176 39.8024 99.7716 30.6793 92.9618 22.8577C86.152 15.0361 77.302 10.4925 66.4118 9.22699V16.2699C66.4118 18.7065 64.4366 20.6817 62 20.6817V20.6817C59.5635 20.6817 57.5882 18.7065 57.5882 16.2699V4.41176C57.5882 1.97521 59.5634 0 62 0V0C68.8598 0 75.326 1.31821 81.3985 3.95464C87.4711 6.59106 92.777 10.1897 97.3162 14.7505C101.856 19.3103 105.439 24.6403 108.063 30.7404C110.688 36.8405 112 43.336 112 50.227H103.176Z" fill="white"/>
<path d="M112 50.227H103.176V50.5882C103.176 53.0248 105.152 55 107.588 55V55C110.025 55 112 53.0248 112 50.5882V50.227Z" fill="white"/>
<g clip-path="url(#clip0_519_6236)">
<path d="M26.1294 72.9332C23.9898 71.9138 21.6396 71.4091 19.2683 71.4595H12V95.1761H19.2683C21.6396 95.2265 23.9898 94.7217 26.1294 93.7024C28.0341 92.7863 29.6323 91.3416 30.7319 89.5422C31.8415 87.6557 32.4097 85.502 32.3746 83.316C32.4092 81.1312 31.841 78.9788 30.7319 77.0934C29.6323 75.294 28.0341 73.8493 26.1294 72.9332ZM26.4835 87.2471C25.8184 88.3509 24.83 89.2256 23.6512 89.7537C22.2732 90.3639 20.7759 90.6602 19.2683 90.621H16.8679V76.0145H19.2683C20.7759 75.9753 22.2732 76.2716 23.6512 76.8818C24.83 77.41 25.8184 78.2847 26.4835 79.3885C27.1632 80.585 27.5069 81.9417 27.4783 83.316C27.5019 84.6932 27.1522 86.0512 26.4658 87.2471H26.4835Z" fill="white"/>
<path d="M60.9873 91.0371C61.4132 90.1266 61.6401 89.1364 61.6529 88.132C61.6744 87.3004 61.5218 86.4735 61.2049 85.7039C60.8879 84.9342 60.4135 84.2387 59.812 83.6616C58.5941 82.4864 56.6859 81.5533 54.0873 80.8623L52.9685 80.5661C52.3114 80.4106 51.6702 80.1946 51.0532 79.9209C50.6612 79.7534 50.3169 79.4918 50.0513 79.1594C49.8391 78.8482 49.7324 78.4776 49.7468 78.1017C49.7443 77.6281 49.907 77.1683 50.2071 76.8008C50.5426 76.3912 50.9829 76.0794 51.4816 75.8982C52.0722 75.678 52.6991 75.5704 53.3296 75.5809C55.1753 75.5809 56.8758 76.3671 58.4312 77.9395L61.5219 74.4986C60.4382 73.4047 59.1533 72.5286 57.7373 71.9178C56.3475 71.3122 54.8467 71.0001 53.3296 71.0012C51.8244 70.9778 50.3337 71.2974 48.9715 71.9355C47.7442 72.5014 46.6952 73.39 45.9374 74.5056C45.2101 75.5915 44.8288 76.8706 44.8435 78.1758C44.8184 78.9614 44.9586 79.7436 45.2549 80.4722C45.5512 81.2007 45.9971 81.8596 46.5641 82.4065C47.7182 83.5487 49.4471 84.4137 51.7506 85.0013L52.8694 85.2974C53.6664 85.4949 54.4437 85.7639 55.1918 86.1013C55.656 86.3065 56.0649 86.6182 56.3849 87.0109C56.6344 87.3689 56.7667 87.795 56.7637 88.2307C56.7704 88.6354 56.677 89.0355 56.4918 89.3958C56.3066 89.7561 56.0352 90.0655 55.7016 90.2967C54.8922 90.8164 53.9415 91.0749 52.9791 91.0371H52.8234C51.7871 91.041 50.7617 90.8271 49.8141 90.4095C48.797 89.9359 47.8811 89.2716 47.1164 88.4528L43.9938 91.8621C45.135 93.0708 46.5152 94.0311 48.0475 94.6825C49.5592 95.3161 51.1832 95.641 52.8234 95.638H112V91.0547L60.9873 91.0371Z" fill="white"/>
<path d="M12 103.835H19.7285V123H24.6V103.835H32.3604V99.2834H12V103.835Z" fill="white"/>
<path d="M40.6198 99.2834H35.7518V123H40.6198V99.2834Z" fill="white"/>
<path d="M40.6198 71.4597H35.7518V95.194H40.6198V71.4597Z" fill="white"/>
<path d="M57.6913 115.498H57.5604L50.9824 99.2834H44.8647V123H49.6336V108.323H49.7469L55.6203 123H59.6314L65.5048 108.323H65.6181V123H70.3905V99.2834H64.2728L57.6913 115.498Z" fill="white"/>
<path d="M79.4995 112.91H89.0726V108.75H79.4995V103.835H89.9931V99.2834H74.6316V123H90.2586V118.445H79.4995V112.91Z" fill="white"/>
<path d="M109.798 110.985C110.773 109.765 111.296 108.247 111.278 106.687C111.298 105.315 110.892 103.971 110.116 102.837C109.305 101.68 108.184 100.773 106.881 100.218C105.382 99.5704 103.762 99.2517 102.129 99.2834H93.9725V123H98.844V114.123H100.735L106.473 123H112L105.818 113.597C107.38 113.148 108.768 112.237 109.798 110.985ZM102.395 110.061H98.8546V103.715H102.395C103.634 103.715 104.604 103.996 105.305 104.558C105.641 104.849 105.91 105.208 106.094 105.612C106.279 106.015 106.374 106.454 106.374 106.897C106.374 107.34 106.279 107.778 106.094 108.182C105.91 108.585 105.641 108.945 105.305 109.236C104.604 109.798 103.634 110.073 102.395 110.061Z" fill="white"/>
</g>
<defs>
<clipPath id="clip0_519_6236">
<rect width="100" height="52" fill="white" transform="translate(12 71)"/>
</clipPath>
</defs>
</svg>
